<?xml version="1.0" encoding="utf-8"?>
<!-- Generator: Adobe Illustrator 16.0.4, SVG Export Plug-In . SVG Version: 6.00 Build 0)  -->
<!DOCTYPE svg PUBLIC "-//W3C//DTD SVG 1.1//EN" "http://www.w3.org/Graphics/SVG/1.1/DTD/svg11.dtd">
<svg version="1.1" id="Layer_1" xmlns="http://www.w3.org/2000/svg" xmlns:xlink="http://www.w3.org/1999/xlink" x="0px" y="0px"
	 width="1200px" height="1200px" viewBox="0 0 1200 1200" enable-background="new 0 0 1200 1200" xml:space="preserve">
<path d="M902.5,587c0,10,0,20,0,30c-0.2539062,1.4628906-0.5576172,2.9199219-0.7529297,4.390625
	c-2.1591797,16.2675781-2.9775391,32.84375-6.6650391,48.7558594
	c-23.5078125,101.4472656-82.8310547,174.6699219-176.2128906,220.265625
	c-28.6269531,13.9785156-58.9892578,22.7714844-90.6738281,26.6933594C619.6416016,918.1640625,611.0654297,919.0390625,602.5,920
	c-9.3339844,0-18.6660156,0-28,0c-1.9589844-0.2929688-3.9150391-0.5957031-5.875-0.875
	c-15.0878906-2.1445312-30.4257812-3.1992188-45.2197266-6.6113281
	C456.4179688,897.0625,401.5039062,862.1269531,359.0488281,808.0117188
	c-30.3515625-38.6855469-49.8046875-82.3300781-57.640625-130.9628906C299.6972656,666.4316406,298.78125,655.6855469,297.5,645
	c0-8.6679688,0-17.3339844,0-26c0.2695312-1.1191406,0.6523438-2.2246094,0.7929688-3.359375
	c1.4785156-11.8554688,2.0927734-23.8867188,4.5058594-35.546875C316,516.3125,348.0058594,463.9003906,399.3466797,423.6484375
	c42.9228516-33.6533203,91.8056641-52.1503906,146.2275391-55.4423828
	c24.3554688-1.4736328,48.5029297,1.0664062,72.1367188,7.2832031
	c63.3515625,16.6640625,112.1835938,53.1806641,145.6914062,109.2841797
	c30.1738281,50.5175781,40.1269531,105.2226562,27.7460938,162.9960938
	c-11.3261719,52.8515625-39.4277344,95.515625-83.4355469,126.9472656
	c-45.4140625,32.4355469-96.1259766,45.5410156-151.4433594,36.0253906
	c-49.3652344-8.4921875-89.2431641-33.53125-118.5664062-74.28125
	c-26.1210938-36.2988281-38.0195312-77.0039062-32.9550781-121.6855469
	c4.8671875-42.953125,23.78125-79.0507812,57.7714844-106.1523438
	c38.9580078-31.0605469,82.9199219-42.3847656,131.8544922-29.5996094
	c52.5068359,13.71875,92.3574219,60.7441406,95.875,114.3007812c2.4082031,36.671875-9.8876953,68.2519531-38.6787109,91.8789062
	c-25.4960938,20.9199219-54.6894531,28.9394531-87.1601562,19.7324219
	c-39.4003906-11.171875-62.4912109-50.453125-55.8964844-84.9023438
	c4.5429688-23.7304688,23.6152344-46.3027344,55.8984375-45.2265625
	c17.2666016,0.5742188,35.6074219,10.6132812,39.4882812,31.4042969
	c2.6503906,14.2070312-1.5351562,30.7988281-16.9541016,38.6757812c-0.8564453,0.4375-1.6552734,0.9902344-2.4804688,1.4902344
	c4.2744141,0.6660156,8.359375,0.8378906,12.125-0.1757812c19.2636719-5.1855469,32.7314453-22.7636719,32.7763672-43.265625
	c0.046875-21.9960938-9.5869141-39.7402344-26.8515625-52.640625c-25.4677734-19.03125-53.2978516-19.7910156-81.4472656-6.6601562
	c-44.6875,20.8457031-66.0810547,70.6679688-51.9648438,119.4179688
	c19.6191406,67.7539062,91.2402344,104.9550781,160.0410156,83.2636719
	c77.0820312-24.3046875,121.4414062-102.8867188,100.7714844-183.9609375
	C707.2109375,473.3066406,622.2988281,417.4765625,530.25,431.2597656
	c-39.265625,5.8808594-74.2470703,22.1601562-103.2910156,49.1601562
	c-60.9794922,56.6875-81.1152344,126.7324219-60.7841797,206.7871094
	c29.5585938,116.3925781,144.3056641,188.9082031,262.6972656,167.8652344
	c66.4550781-11.8125,120.5146484-44.890625,160.9072266-98.7226562
	C836.2148438,694.4648438,850.8359375,624.6503906,835.5166016,549
	c-13.8779297-68.5273438-49.5341797-124.0019531-104.1757812-167.3310547
	c-23.3623047-18.5263672-49.4560547-32.2382812-77.3779297-42.625
	c-11.5019531-4.2783203-17.8535156-13.2197266-19.2402344-25.1621094
	c-1.3007812-11.2080078,2.8671875-20.7773438,12.015625-27.4306641C650.7617188,283.5253906,655.8789062,282.1044922,660.5,280
	c3,0,6,0,9,0c2.6503906,0.890625,5.3330078,1.6953125,7.9472656,2.6835938
	c88.5800781,33.4892578,152.6640625,93.5820312,193.3769531,178.7597656
	c15.0380859,31.4648438,24.609375,64.6621094,28.7597656,99.3496094C900.6279297,569.5195312,901.5322266,578.2636719,902.5,587z"/>
</svg>
